<svg width="47" height="47" viewBox="0 0 47 47" fill="none" xmlns="http://www.w3.org/2000/svg">
<path fill-rule="evenodd" clip-rule="evenodd" d="M23.5 46C35.9264 46 46 35.9264 46 23.5C46 11.0736 35.9264 1 23.5 1C11.0736 1 1 11.0736 1 23.5C1 35.9264 11.0736 46 23.5 46Z" stroke="#DFDFDF"/>
<path opacity="0.7" fill-rule="evenodd" clip-rule="evenodd" d="M27.2577 18.047C26.7966 17.9124 26.2664 17.8226 25.7823 17.8226C25.1829 17.8226 23.8919 18.2041 23.8919 18.9446V20.7174H26.958V23.702H23.8919V31.9375H20.8028V23.702H19.2812V20.7174H20.8028V19.2139C20.8028 16.9475 21.8632 15.0625 24.4221 15.0625C25.2982 15.0625 26.8658 15.1074 27.7188 15.3991L27.2577 18.047Z" fill="#3D3D3D"/>
</svg>
