<svg width="47" height="47" viewBox="0 0 47 47" fill="none" xmlns="http://www.w3.org/2000/svg">
<path fill-rule="evenodd" clip-rule="evenodd" d="M23.5 46C35.9264 46 46 35.9264 46 23.5C46 11.0736 35.9264 1 23.5 1C11.0736 1 1 11.0736 1 23.5C1 35.9264 11.0736 46 23.5 46Z" stroke="#DFDFDF"/>
<path opacity="0.7" fill-rule="evenodd" clip-rule="evenodd" d="M29.7494 15.0625H15.8444C15.0344 15.0625 14.3594 15.7375 14.3594 16.5475V20.6819H19.9788C20.8225 20.0744 21.7169 19.5512 22.7969 19.5512C23.8431 19.5512 24.7881 20.0744 25.615 20.6819H31.2344V16.5475C31.2344 15.7375 30.5594 15.0625 29.7494 15.0625ZM30.1038 18.9775C30.1038 19.2981 29.8506 19.5681 29.53 19.5681H27.3194C26.9987 19.5681 26.7288 19.2981 26.7288 18.9775V16.7669C26.7288 16.4462 26.9987 16.1931 27.3194 16.1931H29.53C29.8506 16.1931 30.1038 16.4462 30.1038 16.7669V18.9775ZM25.615 24.0569C25.615 22.5044 24.3494 21.2556 22.7969 21.2556C21.2444 21.2556 19.9788 22.5044 19.9788 24.0569C19.9788 25.6094 21.2444 26.875 22.7969 26.875C24.3494 26.875 25.615 25.6094 25.615 24.0569ZM27.1 22.9431C27.2013 23.2806 27.235 23.635 27.235 23.9894C27.235 26.4531 25.2437 28.4444 22.7969 28.4444C20.35 28.4444 18.3588 26.4531 18.3588 23.9894C18.3588 23.635 18.3925 23.2806 18.4938 22.9431H14.3594V30.4525C14.3594 31.2625 15.0344 31.9375 15.8444 31.9375H29.7494C30.5594 31.9375 31.2344 31.2625 31.2344 30.4525V22.9431H27.1Z" fill="#3D3D3D"/>
</svg>
