<svg width="47" height="47" viewBox="0 0 47 47" fill="none" xmlns="http://www.w3.org/2000/svg">
<path fill-rule="evenodd" clip-rule="evenodd" d="M23.5 46C35.9264 46 46 35.9264 46 23.5C46 11.0736 35.9264 1 23.5 1C11.0736 1 1 11.0736 1 23.5C1 35.9264 11.0736 46 23.5 46Z" stroke="#DFDFDF"/>
<path opacity="0.7" fill-rule="evenodd" clip-rule="evenodd" d="M28.1949 19.8537C28.1949 19.8537 28.1949 19.7124 28.1949 19.8537C27.4751 19.147 26.6115 18.8644 25.7478 19.0057C26.6115 18.8644 27.0433 18.5817 27.1873 18.4403C27.1873 18.299 27.1873 18.1577 27.0433 18.1577C26.6115 18.1577 26.1796 18.299 25.8917 18.4403C26.3236 18.1577 26.4675 18.0163 26.4675 17.875C26.0357 17.875 25.6038 18.1577 25.0281 18.5817C25.172 18.299 25.3159 18.1577 25.172 18.0163C24.8841 18.1577 24.7402 18.299 24.5962 18.5817C24.1644 19.0057 23.8765 19.2884 23.7325 19.7124C23.1567 20.7017 22.7249 21.5498 22.437 22.5391H22.2931C22.0052 22.1151 21.5733 21.6911 20.9975 21.4084C20.4218 20.9844 19.702 20.7017 18.8383 20.2777C17.9747 19.8537 17.111 19.4297 16.1033 19.147C16.1033 20.1364 16.5352 20.9844 17.5428 21.5498C17.2549 21.5498 16.8231 21.5498 16.5352 21.6911C16.5352 22.5391 17.2549 23.2458 18.5504 23.5285C18.1186 23.5285 17.6868 23.6698 17.2549 23.9525C17.6868 24.8005 18.4065 25.0832 19.5581 25.0832C19.4141 25.2245 19.1262 25.3659 19.1262 25.3659C18.9823 25.5072 18.8383 25.7899 18.9823 26.0726C19.2702 26.4966 19.5581 26.6379 20.2778 26.6379C19.2702 27.6273 17.9747 28.1926 16.5352 28.0513C15.6715 28.0513 14.6639 27.6273 13.6563 26.7793C14.6639 28.1926 16.1033 29.3233 17.8307 30.03C19.846 30.5954 21.8612 30.7367 23.7325 30.1713C25.6038 29.606 27.3312 28.4753 28.6267 26.9206C29.2025 26.0726 29.6344 25.2245 29.7783 24.3765C30.7859 24.3765 31.5057 24.0938 31.9375 23.5285C31.6496 23.6698 30.9299 23.6698 29.9222 23.3872C30.9299 23.2458 31.6496 22.9631 31.7936 22.3978C31.0738 22.6805 30.3541 22.6805 29.6344 22.3978C29.4904 21.4084 29.0586 20.5604 28.1949 19.8537Z" fill="#3D3D3D"/>
</svg>
